TITLE "WEFUNK SHOW #809"
PERFORMER "WEFUNK RADIO"
REM Year  : 2015
REM Genre : HipHop
FILE "WEFUNK_Show_809_2015-02-13_hq.mp3" MP3
	TRACK 01 AUDIO
		TITLE "intro"
		PERFORMER "WEFUNK RADIO"
		INDEX 01 00:00:00
	TRACK 02 AUDIO
		TITLE "charlene"
		PERFORMER "psychic mirrors"
		INDEX 01 01:40:19
	TRACK 03 AUDIO
		TITLE "talk (over aurra - are you foolin' around instrumental)"
		PERFORMER "WEFUNK RADIO"
		INDEX 01 05:12:09
	TRACK 04 AUDIO
		TITLE "you and me tonight"
		PERFORMER "aurra"
		INDEX 01 12:15:57
	TRACK 05 AUDIO
		TITLE "space is the place"
		PERFORMER "pleasure"
		INDEX 01 18:35:69
	TRACK 06 AUDIO
		TITLE "spread love"
		PERFORMER "harris & orr"
		INDEX 01 22:22:28
	TRACK 07 AUDIO
		TITLE "ambition"
		PERFORMER "marco polo feat. arcee"
		INDEX 01 26:16:46
	TRACK 08 AUDIO
		TITLE "jazz theory"
		PERFORMER "k. sparks"
		INDEX 01 29:41:34
	TRACK 09 AUDIO
		TITLE "on the road again"
		PERFORMER "nonce"
		INDEX 01 32:18:60
	TRACK 10 AUDIO
		TITLE "white clouds"
		PERFORMER "hiroshi fukumura feat. sadao watanabe"
		INDEX 01 35:13:36
	TRACK 11 AUDIO
		TITLE "the chosen one"
		PERFORMER "o.c."
		INDEX 01 36:58:59
	TRACK 12 AUDIO
		TITLE "explosives"
		PERFORMER "potatohead people feat. illa j. & moka only"
		INDEX 01 40:34:62
	TRACK 13 AUDIO
		TITLE "east n.y. theory"
		PERFORMER "group home feat. brainsick mob"
		INDEX 01 44:09:57
	TRACK 14 AUDIO
		TITLE "strangers"
		PERFORMER "kenn starr"
		INDEX 01 47:47:21
	TRACK 15 AUDIO
		TITLE "if only"
		PERFORMER "flamingosis"
		INDEX 01 50:10:71
	TRACK 16 AUDIO
		TITLE "the rah rah"
		PERFORMER "marc rapson feat. replife"
		INDEX 01 52:12:46
	TRACK 17 AUDIO
		TITLE "hold onto the feeling"
		PERFORMER "strikers"
		INDEX 01 55:31:41
	TRACK 18 AUDIO
		TITLE "baby you give me a feeling"
		PERFORMER "roy ayers"
		INDEX 01 59:30:53
	TRACK 19 AUDIO
		TITLE "beach journey"
		PERFORMER "alan hawkshaw"
		INDEX 01 62:19:22
	TRACK 20 AUDIO
		TITLE "star crossed"
		PERFORMER "david snell"
		INDEX 01 65:09:53
	TRACK 21 AUDIO
		TITLE "metropolis"
		PERFORMER "walter hawkins"
		INDEX 01 68:45:70
	TRACK 22 AUDIO
		TITLE "erotic interlude"
		PERFORMER "grand loop wizard"
		INDEX 01 74:31:36
	TRACK 23 AUDIO
		TITLE "you rock my world (first touch glue)"
		PERFORMER "michael jackson"
		INDEX 01 75:39:05
	TRACK 24 AUDIO
		TITLE "astral love affair"
		PERFORMER "bug"
		INDEX 01 79:46:07
	TRACK 25 AUDIO
		TITLE "danger zone"
		PERFORMER "recloose"
		INDEX 01 83:00:18
	TRACK 26 AUDIO
		TITLE "luv ya"
		PERFORMER "potatohead people feat. amalia"
		INDEX 01 86:15:68
	TRACK 27 AUDIO
		TITLE "serious funk"
		PERFORMER "synthesiz"
		INDEX 01 88:18:10
	TRACK 28 AUDIO
		TITLE "good love"
		PERFORMER "rome jeffries"
		INDEX 01 91:12:40
	TRACK 29 AUDIO
		TITLE "i lose sleep over you"
		PERFORMER "private eye"
		INDEX 01 94:32:66
	TRACK 30 AUDIO
		TITLE "always remember"
		PERFORMER "sven atterton"
		INDEX 01 97:31:30
	TRACK 31 AUDIO
		TITLE "cruisin"
		PERFORMER "a.j."
		INDEX 01 99:59:70
	TRACK 32 AUDIO
		TITLE "funky fever"
		PERFORMER "armed gang"
		INDEX 01 101:56:47
	TRACK 33 AUDIO
		TITLE "boomerang"
		PERFORMER "diamond ortiz"
		INDEX 01 104:52:15
	TRACK 34 AUDIO
		TITLE "the mexican"
		PERFORMER "g.z.a. feat. tom morello"
		INDEX 01 108:50:67
	TRACK 35 AUDIO
		TITLE "keep watch"
		PERFORMER "wu-tang clan"
		INDEX 01 112:38:47
	TRACK 36 AUDIO
		TITLE "meteor hammer"
		PERFORMER "ghostface killah feat. action bronson & termanology"
		INDEX 01 117:17:01
	TRACK 37 AUDIO
		TITLE "talk (over freddie gibbs & madlib - the dunk)"
		PERFORMER "WEFUNK RADIO"
		INDEX 01 119:37:68
	TRACK 38 AUDIO
		TITLE "king"
		PERFORMER "slimkid3 & d.j. nu-mark feat. diamond d. & k-natural"
		INDEX 01 125:41:74
	TRACK 39 AUDIO
		TITLE "the blacker the berry"
		PERFORMER "kendrick lamar"
		INDEX 01 127:45:24
	TRACK 40 AUDIO
		TITLE "hands up"
		PERFORMER "vince staples"
		INDEX 01 131:20:10